<svg width="40" height="40" viewBox="0 0 40 40" fill="none" xmlns="http://www.w3.org/2000/svg">
<ellipse cx="20" cy="1.5" rx="1.5" ry="1.5" transform="rotate(180 20 1.5)" fill="#427931"/>
<ellipse rx="1.5" ry="1.5" transform="matrix(-1 -8.82199e-08 -8.82203e-08 1 20 38.5)" fill="#9550AD"/>
<ellipse cx="13.6726" cy="2.6157" rx="1.5" ry="1.5" transform="rotate(160 13.6726 2.6157)" fill="#427931"/>
<ellipse rx="1.5" ry="1.5" transform="matrix(-0.939693 0.34202 0.34202 0.939693 26.3274 37.3844)" fill="#9550AD"/>
<ellipse cx="8.10843" cy="5.8283" rx="1.5" ry="1.5" transform="rotate(140 8.10843 5.8283)" fill="#427931"/>
<ellipse rx="1.5" ry="1.5" transform="matrix(-0.766044 0.642788 0.642788 0.766044 31.8916 34.1718)" fill="#9550AD"/>
<ellipse cx="3.97853" cy="10.75" rx="1.5" ry="1.5" transform="rotate(120 3.97853 10.75)" fill="#C34728"/>
<ellipse rx="1.5" ry="1.5" transform="matrix(-0.5 0.866025 0.866025 0.5 36.0215 29.25)" fill="#2E738E"/>
<ellipse cx="1.78107" cy="16.7875" rx="1.5" ry="1.5" transform="rotate(100 1.78107 16.7875)" fill="#C34728"/>
<ellipse rx="1.5" ry="1.5" transform="matrix(-0.173648 0.984808 0.984808 0.173648 38.219 23.2125)" fill="#2E738E"/>
<ellipse cx="1.78108" cy="23.2125" rx="1.5" ry="1.5" transform="rotate(80 1.78108 23.2125)" fill="#C34728"/>
<ellipse rx="1.5" ry="1.5" transform="matrix(0.173648 0.984808 0.984808 -0.173648 38.219 16.7875)" fill="#2E738E"/>
<ellipse cx="3.97854" cy="29.25" rx="1.5" ry="1.5" transform="rotate(60 3.97854 29.25)" fill="#C34728"/>
<ellipse rx="1.5" ry="1.5" transform="matrix(0.5 0.866025 0.866025 -0.5 36.0215 10.75)" fill="#2E738E"/>
<ellipse cx="8.10844" cy="34.1718" rx="1.5" ry="1.5" transform="rotate(40 8.10844 34.1718)" fill="#9550AD"/>
<ellipse rx="1.5" ry="1.5" transform="matrix(0.766044 0.642788 0.642788 -0.766044 31.8916 5.82818)" fill="#427931"/>
<ellipse cx="13.6726" cy="37.3844" rx="1.5" ry="1.5" transform="rotate(20 13.6726 37.3844)" fill="#9550AD"/>
<ellipse rx="1.5" ry="1.5" transform="matrix(0.939693 0.34202 0.34202 -0.939693 26.3274 2.61582)" fill="#427931"/>
<ellipse cx="20" cy="10" rx="6" ry="6" transform="rotate(180 20 10)" fill="#427931"/>
<ellipse cx="20" cy="30" rx="6" ry="5.99999" transform="rotate(180 20 30)" fill="#9550AD"/>
<ellipse cx="10" cy="20" rx="6" ry="6" transform="rotate(90 10 20)" fill="#C34728"/>
<ellipse cx="30" cy="20" rx="6" ry="5.99999" transform="rotate(90 30 20)" fill="#2E738E"/>
</svg>
